<svg viewBox=" 0 0 806 803"
	xmlns="http://www.w3.org/2000/svg" version="1.1" id="Layer_1" x="0" y="0" xml:space="preserve">
	<style>
    .rest path {
      fill: black; /* Default fill color for light mode */
    }

    @media (prefers-color-scheme: dark) {
      .rest path {
        fill: white; /* Fill color for dark mode */
      }
    }
	</style>
	<g class="main">
		<g class="leafs">
			<path fill="#0d9488" fill-rule="evenodd" clip-rule="evenodd" d="m391 6 3 25c4 22 13 43 25 62 11 19 18 40 18 62 0 25-11 45-27 63l-14 15-1-1 1-6c4-16 10-32 13-48 6-30 1-59-12-87l-7-17c-36 50-34 103-19 159-13-14-23-28-29-44-11-32-7-62 10-90l18-26c11-15 16-33 17-51l2-16h2zM485 428l5 5c24 22 50 41 81 52a160 160 0 0 0 68 6l3-1c-34-53-85-79-147-85v-2l32-8c44-8 77 10 102 44l19 29c10 16 22 28 38 38l19 13-1 1-3-1c-17-5-33-7-50-7h-63c-46 0-79-22-97-64l-7-19 1-1zM128 501c59-1 104-31 143-73-9 40-28 71-75 84-14 4-30 5-45 6-23 2-47 3-68 14l-9 4h-1l2-3c23-18 37-42 52-67 9-15 19-31 34-42 20-17 44-23 70-20l26 4c-56 14-102 41-129 93z"/>
		</g>
		<g class="rest">
			<path fill-rule="evenodd" clip-rule="evenodd" d="m343 798 5-25c5-17 3-34-6-49l-44-80a227 227 0 0 1-22-197c13-34 37-53 73-58h39l4 2-11 3c-27 6-51 19-67 42-11 17-17 35-20 55-7 58 6 111 32 162l35 65c7 13 11 27 8 42v3l14-14a338 338 0 0 0 89-189c1-25-5-48-15-71l-36-72c-7-14-14-28-16-43-2-10-2-19 2-29l11 13 59 86c18 29 27 62 26 97a388 388 0 0 1-85 202 207 207 0 0 1-74 56l-1-1z"/>
			<path fill-rule="evenodd" clip-rule="evenodd" d="M410 327c7 8 14 16 22 22 18 16 41 21 65 19 54-4 98-30 137-66 27-26 48-58 65-91l14-24c8-12 19-21 32-27l6-3v-1c-10-3-19-7-29-9a368 368 0 0 0-167 8c-44 13-76 41-99 80l-36 60a79 79 0 0 1-45 35l-3 1h-2c-2-11 3-21 9-30 16-19 26-42 36-64 11-25 24-48 44-65 24-20 51-32 81-41 29-8 58-12 88-12 22 0 44 0 66 2 34 3 66 12 94 33l8 7-12 3c-27 6-47 21-60 45l-38 68c-25 46-61 78-111 95-22 7-43 15-65 17-27 3-52 1-74-18a91 91 0 0 1-26-44zM31 140l8 27c18 55 48 103 90 144 27 25 60 40 97 43l81 4c19 1 36 4 52 14l4 2-12 5c-43 11-87 15-131 12-33-3-62-17-86-40-57-52-99-115-121-190-6-18-7-37-3-56l3-8 4 5c15 23 36 33 63 34h82c31 1 62 4 91 16 15 6 28 14 41 24l35 24c28 21 42 50 42 85a104 104 0 0 1-23 62l-2 1 3-10c3-14 7-27 9-41 2-22-8-40-22-55a255 255 0 0 0-186-83l-56-1-33-4c-9-1-17-5-24-10l-5-4h-1z"/>
			<path fill-rule="evenodd" clip-rule="evenodd" d="M402 645c0-22-8-40-16-58l-23-47a85 85 0 0 1 13-93l18-21c1-2 2-3 5-3l-1 5-13 41c-7 23-5 47 2 70l19 60c4 15 5 29-2 43l-2 3zM619 208c-16 11-29 24-39 40l-20 32c-9 13-19 25-31 34a89 89 0 0 1-86 11l-10-3-4-2 21-4 38-10c23-7 40-21 55-40l37-41c11-11 24-15 39-17zM320 333l-25-22c-18-20-39-37-66-42-12-3-25-4-37-6-17-3-33-7-47-18l-12-14h1c16 10 34 13 52 14 21 2 41 3 61 6 30 4 50 22 62 49l11 33s0 1 0 0z"/>
			<path fill-rule="evenodd" clip-rule="evenodd" d="M671 535c-7 13-16 25-24 36-45 55-104 91-160 109l2-5 13-31c2-3 5-6 8-7 48-22 88-54 119-97 3-4 6-6 11-6l28 1h3zM296 682c-79-22-140-67-187-135l11-3 20-3c4 0 6 2 9 5a308 308 0 0 0 116 91c5 2 10 6 12 11l17 29 2 5zM368 31l-12 26c-2 5-6 6-11 7-28 4-56 11-82 24-15 7-30 16-44 25-6 3-11 4-17 4-12-2-24-2-37-3 58-51 125-79 201-85l2 2zM696 484c-10-6-17-13-23-23v-5a279 279 0 0 0 13-122c0-7 0-14 5-20l19-30a329 329 0 0 1-14 200zM83 497c-29-64-36-129-24-197l5 4 17 21c5 6 6 13 6 20-3 39 2 76 15 113 2 5 1 10-2 15l-17 24zM591 99c-10 2-20 2-29 5-11 3-20 1-30-5-29-18-62-28-96-34l-7-4c-5-9-8-19-9-30 63 6 120 29 171 68z"/>
		</g>
		<g class="flower-inner">
		</g>
		<g class="circle">
		</g>
	</g>
</svg>